<svg xmlns="http://www.w3.org/2000/svg" width="140" height="140" viewBox="0 0 140 140">
  <g id="Search_Loupe_Delete" data-name="Search, Loupe, Delete" opacity="0.5">
    <g id="Group_11743" data-name="Group 11743" transform="translate(23.333 23.333)">
      <path id="Path_10417" data-name="Path 10417" d="M91.115,47.558h0A43.557,43.557,0,0,1,47.558,91.115h0A43.557,43.557,0,0,1,4,47.558H4A43.557,43.557,0,0,1,47.558,4h0A43.557,43.557,0,0,1,91.115,47.558Z" transform="translate(-4 -4)" fill="none" stroke="#a8c4d3" stroke-linecap="round" stroke-linejoin="round" stroke-width="6"/>
      <path id="Path_10418" data-name="Path 10418" d="M35.708,35.708,16.75,16.75" transform="translate(57.625 57.625)" fill="none" stroke="#a8c4d3" stroke-linecap="round" stroke-linejoin="round" stroke-width="6"/>
      <path id="Path_10419" data-name="Path 10419" d="M36.512,9.119,9.119,36.512" transform="translate(20.742 20.742)" fill="none" stroke="#a8c4d3" stroke-linecap="round" stroke-linejoin="round" stroke-width="6"/>
      <path id="Path_10420" data-name="Path 10420" d="M36.512,36.512,9.119,9.119" transform="translate(20.742 20.742)" fill="none" stroke="#a8c4d3" stroke-linecap="round" stroke-linejoin="round" stroke-width="6"/>
    </g>
    <path id="Path_10421" data-name="Path 10421" d="M0,0H140V140H0Z" fill="none"/>
  </g>
</svg>
